Coordinates
version=1
nRows=8
nColumns=40
inDegrees=yes

Units are S.I. units (second, meters, Newtons, ...)
Angles are in degrees.

endheader
time	pelvis_tilt	pelvis_list	pelvis_rotation	pelvis_tx	pelvis_ty	pelvis_tz	hip_flexion_r	hip_adduction_r	hip_rotation_r	knee_angle_r	knee_angle_r_beta	ankle_angle_r	subtalar_angle_r	mtp_angle_r	hip_flexion_l	hip_adduction_l	hip_rotation_l	knee_angle_l	knee_angle_l_beta	ankle_angle_l	subtalar_angle_l	mtp_angle_l	lumbar_extension	lumbar_bending	lumbar_rotation	arm_flex_r	arm_add_r	arm_rot_r	elbow_flex_r	pro_sup_r	wrist_flex_r	wrist_dev_r	arm_flex_l	arm_add_l	arm_rot_l	elbow_flex_l	pro_sup_l	wrist_flex_l	wrist_dev_l
     20.96678571	     -4.93761278	     -5.17117072	      3.08129539	      0.85065807	      0.91671177	      0.48344502	     -2.03751852	      5.08940542	    -14.72534161	      9.68211081	      9.68211081	     18.03031821	      3.41621889	     -3.36306046	     32.34096854	     -5.83682738	     -0.04641268	     25.73509407	     25.73509407	      6.32053879	    -12.49287606	      9.05395054	     -6.52153898	      5.31118308	      2.86989097	     39.17161437	    -15.29040258	    -11.45542154	     79.88529926	     44.81135110	      0.00000000	      0.00000000	     -8.46377020	     -6.50902014	      0.67878131	     21.69896759	     44.97212856	      0.00000000	      0.00000000
     20.97857143	     -4.91248742	     -5.06114053	      2.95597501	      0.85228317	      0.91564739	      0.48224906	     -2.52876574	      4.84680341	    -14.58737109	     10.00380855	     10.00380855	     18.45307865	      3.41023732	     -3.27234587	     31.80637686	     -5.67333287	      0.08664153	     26.39784211	     26.39784211	      6.34944999	    -12.66444813	      8.68441947	     -6.35410037	      5.17245671	      2.82164320	     38.64435233	    -15.11470337	    -11.53317588	     80.01748383	     44.80993304	      0.00000000	      0.00000000	     -8.39564339	     -6.68158723	      0.67320925	     21.65912479	     44.98055591	      0.00000000	      0.00000000
     20.99035714	     -4.93143079	     -4.97129373	      2.83119968	      0.85381706	      0.91475149	      0.48095103	     -2.69623843	      4.52650061	    -14.52911221	     10.94034983	     10.94034983	     19.79066544	      3.64168856	     -0.79032231	     31.19436350	     -5.49841701	      0.24161302	     26.64451883	     26.64451883	      5.52835084	    -13.22020812	      6.13237336	     -6.20579306	      5.07756511	      3.59882773	     37.16571919	    -15.42465655	    -12.98172277	     81.97114484	     44.83249178	      0.00000000	      0.00000000	     -7.60732062	     -6.82977602	      0.84402673	     21.09576253	     45.05539018	      0.00000000	      0.00000000
     21.00214286	     -4.93330242	     -4.78181939	      2.76208218	      0.85516103	      0.91411322	      0.47943092	     -2.84745295	      4.09349111	    -14.41213930	     11.81957727	     11.81957727	     20.13947380	      3.36066873	     -0.91366039	     30.76812331	     -5.19991078	      0.38865450	     27.18546119	     27.18546119	      5.74167352	    -13.45461697	      5.86867065	     -6.03834379	      4.84269026	      3.48129218	     36.49755978	    -15.27282754	    -12.91095819	     81.75332013	     44.84145340	      0.00000000	      0.00000000	     -7.30180624	     -6.96230136	      0.86775354	     21.09615976	     45.07111731	      0.00000000	      0.00000000
     21.01392857	     -4.86040805	     -4.65479974	      2.76977168	      0.85651516	      0.91401159	      0.47764352	     -3.18915387	      3.75083104	    -14.37479366	     12.44216122	     12.44216122	     20.21872293	      3.18200437	     -0.98963301	     30.28321980	     -4.92671029	      0.52580649	     27.64784779	     27.64784779	      6.08775473	    -13.69103806	      5.65707225	     -6.00725707	      4.76781084	      3.25190901	     35.62790825	    -15.06557136	    -12.84872475	     81.50562468	     44.84622552	      0.00000000	      0.00000000	     -6.91225853	     -7.08934837	      0.87019972	     21.18605739	     45.08362758	      0.00000000	      0.00000000
     21.02571429	     -4.91664805	     -4.39464953	      2.72999054	      0.85748188	      0.91396462	      0.47566496	     -2.89368678	      3.08462968	    -14.38629583	     14.00878051	     14.00878051	     20.45644681	      2.83828442	     -1.30420383	     29.92300447	     -4.49086610	      0.64282152	     27.99894221	     27.99894221	      6.39780597	    -14.13506273	      5.56898705	     -5.88781084	      4.53426868	      3.26506407	     34.63661127	    -15.11575595	    -12.93286417	     81.18335585	     44.86318861	      0.00000000	      0.00000000	     -6.28444677	     -7.18985700	      0.87842590	     21.25707992	     45.11059589	      0.00000000	      0.00000000
     21.03750000	     -4.73818603	     -4.34348109	      2.82577493	      0.85871759	      0.91466731	      0.47348675	     -3.22259963	      2.76609536	    -14.45714296	     14.82734680	     14.82734680	     20.34443924	      2.68404428	     -1.41997754	     29.34090682	     -4.25527025	      0.84701318	     28.34132726	     28.34132726	      6.84956727	    -14.35090499	      5.40337327	     -5.99114414	      4.58251128	      2.95497267	     33.50043428	    -14.84505704	    -12.85095648	     80.81227697	     44.86946579	      0.00000000	      0.00000000	     -5.67930311	     -7.23660701	      0.88851416	     21.43262981	     45.12417295	      0.00000000	      0.00000000
     21.04928571	     -4.70548980	     -4.02508560	      2.78265322	      0.85957359	      0.91533865	      0.47113679	     -2.78788591	      1.90230596	    -14.59140943	     16.82344305	     16.82344305	     20.39329941	      2.51524067	     -2.00774322	     28.82363490	     -3.76194470	      0.83926313	     28.52262759	     28.52262759	      7.24605266	    -14.76856766	      5.48250661	     -6.01180654	      4.33236836	      3.02670106	     32.27569982	    -15.00544599	    -12.93250727	     80.16713819	     44.89335648	      0.00000000	      0.00000000	     -4.89597177	     -7.37692640	      0.87959270	     21.60576982	     45.15147891	      0.00000000	      0.00000000
